<svg width="90" height="93" viewBox="0 0 90 93" fill="none" xmlns="http://www.w3.org/2000/svg">
<g filter="url(#filter0_f_6_19)">
<path fill-rule="evenodd" clip-rule="evenodd" d="M78 76.2438C78 79.1812 63.2257 81.5622 45 81.5622C26.7749 81.5622 12 79.1812 12 76.2438C12 73.3065 26.7743 70.9252 45 70.9252C63.2251 70.9252 78 73.3063 78 76.2438Z" fill="#1C241F"/>
</g>
<path opacity="0.8" d="M31.5499 0.0048737C32.0793 0.0245609 32.6082 0.100545 33.1385 0.239064C35.6035 0.8828 36.7932 2.71864 37.745 4.34736C38.6966 5.97607 39.4713 7.65746 40.2382 8.64963L36.6275 10.8175C35.4227 9.25877 34.6637 7.48146 33.8607 6.10711C33.0577 4.73275 32.2743 4.02373 31.8996 3.92578C31.2389 3.75325 30.2879 3.86384 29.2544 4.39414C28.2209 4.92445 27.1989 5.84733 26.5637 6.90327C24.1501 10.9146 23.7414 16.1302 23.9946 21.8306C24.2478 27.5308 25.1379 33.6412 24.8535 39.441C24.7263 42.0362 24.4345 44.498 24.5571 46.8144C24.9108 53.5001 25.5338 60.2368 27.4 66.3316C27.8183 67.6977 28.7453 69.0379 29.5968 70.781L25.5833 72.2998C24.9013 70.9035 23.8082 69.3757 23.1814 67.3284C21.1698 60.7588 20.5524 53.7669 20.1942 46.9949C20.0508 44.2855 20.3714 41.7124 20.4906 39.2803C20.7518 33.9534 19.8952 27.9108 19.6317 21.9779C19.3682 16.045 19.6699 10.1437 22.7026 5.10365C23.7291 3.3976 25.2593 1.99866 27.058 1.07586C28.4071 0.38363 29.9623 -0.0537485 31.5504 0.00532373L31.5499 0.0048737Z" fill="#0B2822"/>
<path opacity="0.8" d="M61.6094 0.392173C61.08 0.411861 60.5511 0.487845 60.0208 0.626364C57.5558 1.2701 56.3661 3.10594 55.4143 4.73466C54.4627 6.36337 53.688 8.04476 52.9211 9.03693L56.5318 11.2048C57.7366 9.64607 58.4956 7.86876 59.2986 6.49441C60.1016 5.12005 60.885 4.41104 61.2597 4.31308C61.9204 4.14055 62.8714 4.25114 63.9049 4.78144C64.9384 5.31175 65.9604 6.23463 66.5956 7.29057C69.0092 11.3019 69.4179 16.5175 69.1647 22.2179C68.9115 27.9181 68.0214 34.0285 68.3058 39.8283C68.433 42.4235 68.7248 44.8853 68.6022 47.2017C68.2485 53.8874 67.6255 60.6241 65.7593 66.7189C65.341 68.085 64.414 69.4252 63.5625 71.1683L67.576 72.6871C68.258 71.2908 69.3511 69.763 69.9779 67.7157C71.9895 61.146 72.6069 54.1542 72.9651 47.3822C73.1085 44.6728 72.7879 42.0997 72.6687 39.6676C72.4075 34.3406 73.2641 28.2981 73.5276 22.3652C73.7911 16.4323 73.4894 10.531 70.4567 5.49074C69.4302 3.78468 67.9 2.38575 66.1013 1.46295C64.7522 0.770715 63.197 0.333336 61.6089 0.392409L61.6094 0.392173Z" fill="#0B2822"/>
<path fill-rule="evenodd" clip-rule="evenodd" d="M57.6448 8.75191C64.8327 10.384 70.1565 16.5705 70.1565 24.0081V74.3405C62.6078 80.3047 50.4678 81.5146 41.8874 81.444C39.2117 81.422 36.5602 81.3701 33.967 81.1471C37.6436 81.7427 41.487 81.8331 45.3764 81.8651C53.9566 81.9356 66.0888 80.7257 73.6382 74.7616V24.4357C73.6382 15.8373 66.533 8.89874 57.6453 8.75122L57.6448 8.75191Z" fill="#00AA88"/>
<path fill-rule="evenodd" clip-rule="evenodd" d="M33.9071 8.13257C24.8849 8.13257 17.6177 14.9104 17.6177 23.3342V27.1881C17.6177 18.7643 24.8849 11.9865 33.9071 11.9865H54.8027C63.8249 11.9865 71.0845 18.7643 71.0845 27.1881V23.3342C71.0845 14.9104 63.8249 8.13257 54.8027 8.13257H33.9071Z" fill="#37C8AB"/>
<path opacity="0.575" d="M33.8899 9.75537C24.9614 9.75537 17.7698 16.1482 17.7698 24.0939V27.7291C17.7698 19.7833 24.9614 13.3905 33.8899 13.3905H54.5685C63.4971 13.3905 70.6811 19.7833 70.6811 27.7291V24.0939C70.6811 16.1482 63.4968 9.75537 54.5685 9.75537H33.8899V9.75537Z" stroke="#0B2817" stroke-width="0.682217" stroke-dasharray="2.73 1.36"/>
<path opacity="0.575" d="M33.8899 10.0294C24.9614 10.0294 17.7698 16.4222 17.7698 24.368V28.0031C17.7698 20.0574 24.9614 13.6645 33.8899 13.6645H54.5685C63.4971 13.6645 70.6811 20.0574 70.6811 28.0031V24.368C70.6811 16.4222 63.4968 10.0294 54.5685 10.0294H33.8899V10.0294Z" stroke="#0B2817" stroke-width="0.682217" stroke-dasharray="2.73 1.36"/>
<g opacity="0.575">
<path opacity="0.575" d="M17.8925 25.7566C17.6526 26.803 17.2823 27.6512 17.0655 27.6512C16.8487 27.6512 16.8675 26.803 17.1074 25.7566C17.3473 24.7103 17.7175 23.8621 17.9343 23.8621C18.1511 23.8621 18.1324 24.7103 17.8925 25.7566Z" fill="#CCCCCC" stroke="#0B2817" stroke-width="0.106993"/>
<path opacity="0.575" d="M17.9488 24.3237C17.9145 24.4733 17.8263 24.5946 17.752 24.5946C17.6776 24.5946 17.6451 24.4733 17.6794 24.3237C17.7137 24.1741 17.8018 24.0529 17.8762 24.0529C17.9505 24.0529 17.9831 24.1741 17.9488 24.3237Z" fill="white" stroke="#0B2817" stroke-width="0.0473939"/>
</g>
<path fill-rule="evenodd" clip-rule="evenodd" d="M33.9046 10.7939C24.8825 10.7939 17.6152 17.5722 17.6152 25.996V74.774C24.6696 81.1912 33.621 81.5864 42.8195 81.6597C51.3998 81.728 63.5342 80.5546 71.0838 74.774V25.996C71.0838 17.5709 63.8232 10.7931 54.8015 10.7931L33.9046 10.7939Z" fill="#0B2822"/>
<path fill-rule="evenodd" clip-rule="evenodd" d="M34.0626 35.1393C25.0404 35.1393 17.7732 39.0891 17.7732 44.0046V48.3337C17.7732 43.418 25.0404 39.4615 34.0626 39.4615H54.9582C63.9804 39.4615 71.2401 43.418 71.2401 48.3337V44.0046C71.2401 39.0889 63.9804 35.1393 54.9582 35.1393H34.0626Z" fill="#2CA089"/>
<path d="M18.1237 45.1377C17.8838 46.1841 17.5135 47.0323 17.2967 47.0323C17.0799 47.0323 17.0987 46.1841 17.3386 45.1377C17.5785 44.0914 17.9487 43.2432 18.1655 43.2432C18.3823 43.2432 18.3636 44.0914 18.1237 45.1377Z" fill="#CCCCCC" stroke="#0B2817" stroke-width="0.106993"/>
<path d="M18.18 43.7047C18.1457 43.8543 18.0575 43.9755 17.9832 43.9755C17.9088 43.9755 17.8763 43.8543 17.9106 43.7047C17.9449 43.5551 18.033 43.4338 18.1074 43.4338C18.1818 43.4338 18.2143 43.5551 18.18 43.7047Z" fill="white" stroke="#0B2817" stroke-width="0.0473939"/>
<path d="M34.0385 36.7258C25.066 36.7258 17.8389 40.5352 17.8389 45.276V49.4511C17.8389 44.7103 25.066 40.8945 34.0385 40.8945H54.8191C63.7916 40.8945 71.0112 44.7103 71.0112 49.4511V45.276C71.0112 40.5352 63.7916 36.7258 54.8191 36.7258H34.0385V36.7258Z" stroke="black" stroke-width="0.671628" stroke-dasharray="5.37 2.69"/>
<path d="M34.0385 36.4368C25.066 36.4368 17.8389 40.2462 17.8389 44.9869V49.162C17.8389 44.4213 25.066 40.6054 34.0385 40.6054H54.8191C63.7916 40.6054 71.0112 44.4213 71.0112 49.162V44.9869C71.0112 40.2462 63.7916 36.4368 54.8191 36.4368H34.0385V36.4368Z" stroke="black" stroke-width="0.671628" stroke-dasharray="5.37 2.69"/>
<path fill-rule="evenodd" clip-rule="evenodd" d="M33.7247 37.5408C24.7025 37.5408 17.4353 41.496 17.4353 46.4117V75.6266C24.4897 79.3714 34.0557 81.8574 43.2526 81.9C51.8328 81.9399 62.4309 80.2527 70.9015 75.8771V46.4117C70.9015 41.496 63.6418 37.5408 54.6196 37.5408H33.7247Z" fill="#165044"/>
<path d="M52.5535 15.7289C52.5535 16.3408 49.0326 16.8369 44.6896 16.8369C40.3464 16.8369 36.8257 16.3408 36.8257 15.7289C36.8257 15.1169 40.3466 14.6208 44.6896 14.6208C49.0328 14.6208 52.5535 15.1169 52.5535 15.7289Z" fill="#999999" stroke="#808080" stroke-width="0.569135"/>
<g opacity="0.62">
<path opacity="0.62" d="M41.4254 15.4499C41.4254 15.3384 41.2969 15.2487 41.1418 15.2487H40.2401C40.083 15.2487 39.9565 15.3384 39.9565 15.4499V15.6642C39.9565 15.7757 40.083 15.8654 40.2401 15.8654H41.1418C41.1479 15.8654 41.1541 15.8698 41.1541 15.8755V16.0898C41.1541 16.0956 41.1479 16.1 41.1418 16.1H40.2401C40.232 16.1 40.2258 16.0956 40.2258 16.0898V16.0102H39.9566V16.0898C39.9566 16.2013 40.083 16.2911 40.2401 16.2911H41.1418C41.2969 16.2911 41.4254 16.2013 41.4254 16.0898V15.8755C41.4254 15.7641 41.2969 15.6743 41.1418 15.6743H40.2401C40.232 15.6743 40.2258 15.67 40.2258 15.6642V15.4499C40.2258 15.4441 40.232 15.4398 40.2401 15.4398H41.1418C41.148 15.4398 41.1541 15.4441 41.1541 15.4499V15.5295H41.4254V15.4499" fill="black"/>
<path opacity="0.62" d="M43.1076 15.4404V15.2493H41.9264C41.7693 15.2493 41.6428 15.339 41.6428 15.4505V16.0904C41.6428 16.2019 41.7693 16.2917 41.9264 16.2917H43.1076V16.1006H41.9264C41.9182 16.1006 41.9121 16.0962 41.9121 16.0904V15.4505C41.9121 15.4447 41.9182 15.4404 41.9264 15.4404H43.1076" fill="black"/>
<path opacity="0.62" d="M44.5571 15.2501V15.6758H43.5942V15.2501H43.325V16.2925H43.5942V15.8669H44.5571V16.2925H44.8264V15.2501H44.5571Z" fill="black"/>
<path opacity="0.62" d="M45.3373 15.2501C45.1802 15.2501 45.0537 15.3399 45.0537 15.4514V16.0913C45.0537 16.2028 45.1802 16.2925 45.3373 16.2925H46.239C46.394 16.2925 46.5226 16.2028 46.5226 16.0913V15.4514C46.5226 15.3399 46.394 15.2501 46.239 15.2501H45.3373ZM45.3373 16.1014C45.3291 16.1014 45.323 16.0971 45.323 16.0913V15.4514C45.323 15.4456 45.3291 15.4412 45.3373 15.4412H46.239C46.2451 15.4412 46.2512 15.4456 46.2512 15.4514V16.0913C46.2512 16.0971 46.2451 16.1014 46.239 16.1014H45.3373Z" fill="black"/>
<path opacity="0.62" d="M47.0275 15.2501C46.8704 15.2501 46.7439 15.3399 46.7439 15.4514V16.0913C46.7439 16.2028 46.8704 16.2925 47.0275 16.2925H47.9292C48.0842 16.2925 48.2127 16.2028 48.2127 16.0913V15.4514C48.2127 15.3399 48.0842 15.2501 47.9292 15.2501H47.0275ZM47.0275 16.1014C47.0193 16.1014 47.0132 16.0971 47.0132 16.0913V15.4514C47.0132 15.4456 47.0193 15.4412 47.0275 15.4412H47.9292C47.9353 15.4412 47.9414 15.4456 47.9414 15.4514V16.0913C47.9414 16.0971 47.9353 16.1014 47.9292 16.1014H47.0275Z" fill="black"/>
<path opacity="0.62" d="M48.4387 16.292H49.9076V16.1009H48.708V15.2482H48.4387V16.292" fill="black"/>
</g>
<defs>
<filter id="filter0_f_6_19" x="0.992541" y="59.9177" width="88.0149" height="32.652" filterUnits="userSpaceOnUse" color-interpolation-filters="sRGB">
<feFlood flood-opacity="0" result="BackgroundImageFix"/>
<feBlend mode="normal" in="SourceGraphic" in2="BackgroundImageFix" result="shape"/>
<feGaussianBlur stdDeviation="5.50373" result="effect1_foregroundBlur_6_19"/>
</filter>
</defs>
</svg>
